<svg width="1369" height="904" viewBox="0 0 1369 904" fill="none" xmlns="http://www.w3.org/2000/svg">
<path fill-rule="evenodd" clip-rule="evenodd" d="M684.48 82.8145C1021.5 82.8145 1301.7 228.928 1358.37 421.202H1368.89V491.918V493.071C1368.89 719.623 1062.4 903.399 684.48 903.399C306.846 903.399 0.575866 719.983 0.0717773 493.719V493.143V421.202H10.5856C67.2596 228.928 347.461 82.8145 684.48 82.8145Z" fill="#808080"/>
<path fill-rule="evenodd" clip-rule="evenodd" d="M639.976 902.534V781.913H728.839V902.534C714.149 903.11 699.314 903.398 684.407 903.398C669.501 903.398 654.666 903.11 639.976 902.534Z" fill="#663399"/>
<path fill-rule="evenodd" clip-rule="evenodd" d="M169.879 763.622V659.06H233.106V801.501C210.71 789.763 189.61 777.088 169.879 763.622Z" fill="#663399"/>
<path fill-rule="evenodd" clip-rule="evenodd" d="M1199.01 763.622V659.06H1135.78V801.501C1158.25 789.763 1179.35 777.088 1199.01 763.622Z" fill="#663399"/>
<path fill-rule="evenodd" clip-rule="evenodd" d="M684.48 820.584C1061.47 820.584 1368.89 636.304 1368.89 410.328C1368.89 184.352 1061.39 0 684.48 0C307.566 0 0 184.28 0 410.328C0 636.304 307.494 820.584 684.48 820.584Z" fill="#D3D3D3"/>
<path d="M683.184 703.924C941.182 703.924 1150.33 575.314 1150.33 416.666C1150.33 258.017 941.182 129.407 683.184 129.407C425.187 129.407 216.038 258.017 216.038 416.666C216.038 575.314 425.187 703.924 683.184 703.924Z" fill="#9370DB"/>
<path fill-rule="evenodd" clip-rule="evenodd" d="M684.481 664.749C918.234 664.749 1108.92 550.465 1108.92 410.328C1108.92 270.191 918.234 155.907 684.481 155.907C450.728 155.907 260.039 270.191 260.039 410.328C260.039 550.465 450.728 664.749 684.481 664.749Z" fill="#663399"/>
<path fill-rule="evenodd" clip-rule="evenodd" d="M1108.06 426.171C1094.38 559.25 909.952 664.749 684.48 664.749C459.009 664.749 274.584 559.25 260.902 426.171C274.584 293.092 459.009 187.665 684.48 187.665C909.88 187.665 1094.3 293.092 1108.06 426.171Z" fill="#D3D3D3"/>
<path fill-rule="evenodd" clip-rule="evenodd" d="M1071.69 215.967L1008.75 178.232L1135.93 101.971L1198.87 139.777L1071.69 215.967Z" fill="#9370DB"/>
<path d="M1367.38 383.611H1187.56V437.117H1367.38V383.611Z" fill="#9370DB"/>
<path fill-rule="evenodd" clip-rule="evenodd" d="M1071.69 604.69L1008.68 642.425L1135.86 718.687L1198.87 680.88L1071.69 604.69Z" fill="#9370DB"/>
<path d="M729.127 717.895H639.976V819.792H729.127V717.895Z" fill="#9370DB"/>
<path fill-rule="evenodd" clip-rule="evenodd" d="M233.106 718.687L170.023 680.88L297.197 604.69L360.28 642.497L233.106 718.687Z" fill="#9370DB"/>
<path d="M181.328 383.611H1.51221V437.117H181.328V383.611Z" fill="#9370DB"/>
<path fill-rule="evenodd" clip-rule="evenodd" d="M297.197 215.967L360.208 178.232L233.034 101.971L170.023 139.705L297.197 215.967Z" fill="#9370DB"/>
<path d="M729.127 0.864258H639.976V108.739H729.127V0.864258Z" fill="#9370DB"/>
<g opacity="0.5">
<path opacity="0.5" d="M987.727 436.036C992.983 440.933 996.512 446.19 996.368 451.807C996.008 462.393 982.614 470.602 965.907 470.602C957.769 470.458 951.576 468.946 946.607 466.57C937.534 470.963 927.236 475.067 915.786 479.1C902.968 483.493 888.853 487.597 873.514 491.342C877.403 503.224 879.924 514.674 881.22 525.404C882.084 534.19 882.084 542.327 881.076 550.104C880.068 557.738 877.907 565.011 874.883 571.42C871.858 577.901 867.969 583.662 863.289 588.487L859.616 592.016L857.744 593.528L855.871 595.04C854.647 595.905 853.351 596.913 852.127 597.705C850.903 598.569 849.606 599.361 848.382 599.937C846.006 601.449 843.629 602.458 841.469 603.466L838.588 604.69L836.068 605.698C833.043 606.706 831.531 607.211 831.387 607.211C830.379 607.571 829.155 607.859 826.706 608.435L824.69 608.939L820.945 609.587C818.209 610.091 814.68 610.739 811.511 610.811C809.855 610.955 808.127 611.027 806.255 611.171C804.526 611.171 802.51 611.171 800.494 611.171H797.469L794.3 611.027C792.14 610.883 789.908 610.811 787.603 610.523C778.53 609.803 768.88 607.859 758.798 605.122C739.715 600.009 719.695 591.44 700.18 580.35C694.779 583.374 689.378 586.255 683.977 588.775C674.904 593.168 665.902 596.697 657.044 599.289C648.403 601.81 640.193 603.682 632.632 604.546C630.76 604.762 628.887 604.906 627.087 605.05L624.567 605.266L622.046 605.41C620.39 605.41 618.806 605.554 617.293 605.554C615.781 605.554 614.413 605.41 613.045 605.41C610.38 605.41 608.004 605.05 605.987 604.762L603.251 604.546L600.874 604.042C598.21 603.538 596.914 603.322 596.842 603.322C596.626 603.322 595.33 602.962 592.953 602.314L590.793 601.81L588.272 600.945C586.4 600.297 584.024 599.577 581.863 598.425L578.335 596.769C577.182 596.121 575.958 595.544 574.662 594.752L572.79 593.744L570.917 592.52C566.884 593.456 562.636 594.032 558.171 594.032C539.592 593.528 525.765 584.238 525.981 573.365C526.197 565.947 532.895 559.682 542.544 556.586C539.52 549.312 537.359 541.319 535.847 532.749C534.695 525.332 534.119 517.483 534.119 509.345C517.412 507.113 500.705 504.232 483.926 500.416C473.268 498.039 462.538 495.159 452.096 491.774C441.654 488.534 431.213 484.645 421.275 479.892C418.754 478.668 416.378 477.372 413.858 476.147C411.481 474.779 409.177 473.411 406.8 472.043C404.568 470.53 402.264 468.946 400.031 467.434C398.015 465.706 395.854 464.049 393.838 462.321L390.958 459.585L389.589 458.072L388.365 456.56L385.989 453.535L383.972 450.439L382.1 447.198L380.732 443.67L379.724 440.285L379.363 438.557L378.859 433.444C379.219 429.051 379.363 427.827 379.579 426.459L380.588 423.074L381.956 419.689L383.612 416.593L384.476 414.937L385.485 413.568L387.645 410.544C389.301 408.672 390.885 406.943 392.686 405.143C394.414 403.415 396.358 401.758 398.231 400.102C400.247 398.59 402.263 397.005 404.28 395.565C406.44 394.053 408.529 392.685 410.689 391.317C419.33 385.916 428.764 381.523 438.342 377.562C440.718 376.554 443.239 375.69 445.615 374.682C447.992 373.817 450.512 372.953 452.888 372.017L460.306 369.497L467.867 367.12C485.438 361.863 503.441 357.471 521.588 354.086C519.86 345.66 518.564 337.163 518.06 328.521C517.916 324.633 517.916 320.744 518.204 316.711C506.538 313.615 498.472 306.198 498.688 297.772C498.905 287.114 512.659 278.833 529.366 278.833C531.742 275.304 534.551 271.919 537.935 268.823L540.456 266.591L541.68 265.582L543.048 264.574L545.929 262.558L549.097 260.83L552.338 259.101L555.867 257.589C557.019 256.941 558.243 256.581 559.539 256.221L561.412 255.501L567.173 253.988L569.045 253.484L571.205 253.124L575.454 252.476C576.966 252.26 578.334 252.116 579.703 251.972C581.215 251.828 582.583 251.756 583.952 251.756L588.2 251.612H590.361H592.521L596.77 251.828C608.076 252.548 618.878 254.852 629.103 257.733C639.257 260.469 648.835 264.142 657.909 268.031C662.445 270.047 666.982 272.063 671.231 274.152C677.784 269.903 684.841 265.726 692.115 261.91C700.756 257.301 709.974 252.98 720.271 249.38C730.569 245.851 742.019 242.898 754.693 241.386L759.446 241.026L761.823 240.81H764.343L769.384 240.666C771.04 240.666 772.769 240.81 774.425 240.81C781.194 241.026 788.035 242.034 794.661 243.546L799.197 244.771L801.07 245.275C805.102 246.643 806.759 247.291 808.487 247.939L810.647 248.803L812.808 249.812C814.176 250.46 815.544 251.036 816.84 251.828L820.585 253.988L822.313 255.141L823.97 256.293L827.21 258.669C835.636 264.934 841.397 271.92 845.79 278.977C850.182 286.106 853.063 293.163 855.223 300.293C857.24 307.278 858.752 314.335 859.4 321.32C860.12 328.233 860.408 335.219 860.048 341.988C859.904 345.372 859.544 348.757 859.328 352.142C874.163 354.878 887.989 357.903 900.807 361.143C913.265 364.384 924.715 367.912 934.869 371.657C945.023 375.402 953.953 379.434 961.37 383.539C968.931 387.644 974.98 391.821 979.373 395.925L982.398 398.95L983.622 400.318L984.774 401.83L986.934 404.567L988.447 407.087C989.455 408.744 989.959 410.184 990.463 411.48L991.183 413.208C991.903 416.305 992.191 417.313 992.191 417.313C992.191 417.457 992.191 418.321 992.335 419.978V423.074C992.191 424.442 992.119 426.099 991.471 427.683L990.751 430.347L989.383 433.228L988.663 434.74L987.727 436.036ZM589.064 454.688C593.313 459.945 597.706 465.202 602.243 470.242C609.516 478.38 617.221 486.301 624.855 493.791C640.553 494.655 655.892 495.303 671.231 495.519C675.912 495.663 680.52 495.663 685.201 495.735C689.882 495.735 694.635 495.591 699.388 495.591H702.772L706.157 495.447C708.389 495.447 710.694 495.447 713.07 495.303C717.607 495.303 722.144 495.159 726.681 495.087C744.396 494.439 761.751 493.43 778.386 492.062C784.147 483.781 789.548 475.283 794.733 466.282C802.51 452.743 809.423 438.341 815.256 423.578C812.88 419.329 810.359 415.081 807.551 410.904C805.823 408.167 804.31 405.503 802.294 402.767C801.43 401.398 800.422 400.03 799.557 398.662L798.189 396.645L796.677 394.629C794.805 391.893 792.788 389.228 790.772 386.492C788.612 383.755 786.595 380.947 784.507 378.354C778.458 370.721 771.905 363.088 764.919 355.526C757.502 355.31 750.013 355.238 742.379 355.238C731.722 355.238 720.848 355.454 709.902 355.814C705.365 355.958 700.972 356.03 696.291 356.318C693.915 356.462 691.61 356.534 689.234 356.534L685.705 356.75L682.465 356.894C673.319 357.543 663.958 358.119 654.524 358.911C640.914 359.919 627.231 361.431 613.549 363.016C608.292 369.785 603.467 376.554 598.858 383.467C596.986 386.132 595.33 388.868 593.457 391.461C591.729 394.197 590.073 397.078 588.416 399.886C585.176 405.143 582.151 410.688 579.271 416.017C576.606 421.13 574.086 426.315 571.709 431.284C573.366 433.66 574.95 436.036 576.606 438.269C578.623 441.005 580.783 443.814 582.799 446.55C584.672 449.287 586.976 452.095 589.064 454.688ZM983.838 419.618C983.838 418.393 983.838 417.457 983.838 417.241C983.838 417.025 983.694 416.377 983.478 415.081L983.262 413.712L982.758 412.2C982.398 411.192 981.894 409.824 981.029 408.6L979.661 406.367L977.645 404.135L976.493 402.911L975.268 401.686L972.388 399.022C968.211 395.493 962.45 391.893 955.321 388.364C948.12 384.835 939.622 381.379 929.684 378.066C919.891 374.97 908.657 371.945 896.486 369.281C884.676 366.76 871.93 364.528 858.392 362.655C856.231 375.69 852.847 388.436 848.598 400.894C845.862 408.672 842.693 416.449 839.308 423.794C849.606 439.205 858.176 454.328 864.801 468.874C866.457 472.475 867.97 476.147 869.338 479.748C883.524 476.868 896.631 473.627 908.585 470.098C919.243 467.002 929.108 463.617 937.75 460.089C935.085 457.064 933.717 453.679 933.717 450.079C934.077 439.349 947.615 431.14 964.322 431.14C964.826 431.14 965.331 431.14 965.763 431.14C970.444 431.284 974.692 432.004 978.725 433.3L979.589 432.076L980.309 430.851L981.677 428.475L982.542 426.243C983.262 424.874 983.262 423.578 983.694 422.642L983.91 421.13V419.618H983.838ZM536.927 476.508C539.592 460.737 544.128 444.174 550.61 427.035C546.865 420.41 543.336 413.64 540.168 406.583C535.631 397.222 531.742 387.644 528.358 377.778L527.134 378.138C522.453 379.29 517.844 380.371 513.307 381.523C504.161 383.899 495.232 386.564 486.518 389.444C477.877 392.181 469.523 395.349 461.602 398.806C453.681 402.19 446.407 405.791 440.07 409.824C433.805 413.856 428.404 418.249 425.092 422.498L423.939 424.154L423.291 425.018L422.931 425.739L422.067 427.395L421.563 429.051L421.203 429.771L421.059 430.275L420.843 431.644L420.699 433.516L420.843 435.532L420.987 436.036L421.203 436.901L421.563 438.413L422.211 439.925L423.075 441.581L424.083 443.094L425.308 444.606L425.956 445.326L426.676 446.19L428.188 447.702C432.581 451.807 438.99 455.696 446.191 459.224C453.464 462.753 461.674 465.994 470.316 468.73C472.476 469.45 474.564 470.242 476.869 470.89C479.029 471.539 481.261 472.259 483.566 472.907L490.335 474.635L497.248 476.363C506.682 478.596 516.116 480.612 525.765 482.341C529.006 482.989 532.462 483.565 535.703 484.069C536.135 481.62 536.495 479.028 536.927 476.508ZM529.582 318.44L527.926 318.296C527.926 321.68 528.07 325.065 528.43 328.305C529.078 334.931 530.086 341.484 531.67 347.821C531.886 349.189 532.318 350.557 532.534 351.854C551.906 348.469 571.277 345.949 590.505 343.932C592.881 343.716 595.402 343.428 597.922 343.212L598.426 342.492C600.802 339.611 602.963 336.731 605.483 333.85C607.86 330.97 610.236 328.089 612.757 325.353C613.981 323.841 615.421 322.472 616.645 321.104C618.013 319.592 619.31 318.224 620.678 316.855C623.342 313.975 626.223 311.238 629.103 308.43C631.84 305.693 634.865 302.885 637.889 300.148C641.058 297.412 644.082 294.603 647.323 291.867C652.868 287.33 658.773 282.865 665.038 278.473C661.149 276.456 656.972 274.584 652.94 272.712C644.298 268.823 635.225 265.294 625.791 262.702C616.213 259.965 606.275 257.805 596.122 257.157L592.377 256.941H590.505H588.632H584.96L581.215 257.157L577.542 257.517L574.158 258.165L572.429 258.381L570.557 258.885L566.884 259.749L566.236 259.965L565.516 260.181L563.86 260.686L560.691 261.91L557.667 263.134L554.93 264.646L552.194 266.303L549.817 268.031L548.593 268.895L547.441 269.759L545.281 271.775C543.912 273 542.616 274.44 541.392 275.808C540.528 277.032 539.52 278.329 538.656 279.553C552.122 282.217 561.916 290.067 561.7 299.356C561.339 309.942 547.801 318.296 531.094 318.296C530.59 318.44 530.086 318.44 529.582 318.44ZM677.856 583.878C682.609 581.358 687.506 578.621 692.331 575.741C673.607 564.219 654.956 550.465 637.385 534.622C630.688 528.717 624.207 522.452 617.797 515.97C615.637 515.97 613.621 515.826 611.532 515.754C591.153 515.034 570.557 513.522 549.673 511.218C549.169 518.635 549.313 525.62 549.889 532.245C550.61 540.239 552.122 547.656 554.282 554.569C555.506 554.425 556.803 554.425 558.171 554.425C575.526 554.929 589.208 564.219 588.992 575.093C588.848 580.638 585.104 585.607 579.055 588.991L579.775 589.495L581.287 590.504L584.312 592.232L587.336 593.744C589.064 594.608 590.865 595.256 592.233 595.76L594.393 596.625L596.266 597.129C598.282 597.777 599.434 597.993 599.794 598.137C600.154 598.281 601.307 598.497 603.179 598.857L605.051 599.217L607.428 599.433C609.156 599.649 611.172 600.081 613.621 600.081C614.773 600.081 615.997 600.225 617.293 600.297C618.662 600.153 620.03 600.153 621.47 600.153L623.703 600.009L625.935 599.865C627.591 599.649 629.175 599.649 630.832 599.361C632.56 599.145 634.216 598.857 636.089 598.497C637.817 598.281 639.617 597.777 641.49 597.345C643.362 596.985 645.234 596.481 647.179 595.977L650.203 595.112L653.084 594.104C661.005 591.656 669.431 588.271 677.856 583.878ZM712.566 276.816C706.517 280.057 700.756 283.442 695.067 286.97C699.316 289.491 703.493 292.083 707.525 294.747C711.414 297.124 714.943 299.644 718.615 302.021C722.144 304.541 725.672 307.062 729.201 309.654C743.027 319.808 755.702 330.322 767.296 341.124C783.643 342.276 799.341 343.644 814.32 345.372C820.369 346.093 826.274 346.885 832.179 347.749C832.395 339.107 832.035 330.61 830.811 321.968C830.091 315.703 828.579 309.438 826.562 303.317C824.402 297.052 821.809 291.075 817.993 285.53C817.129 284.162 816.12 282.793 815.112 281.425C814.104 280.201 812.952 278.905 811.872 277.536L808.199 273.936C806.975 272.784 805.678 271.703 804.31 270.695L802.078 269.183L801.07 268.463L799.918 267.815L797.541 266.447L795.165 265.294L794.012 264.646L792.86 264.142L790.844 263.422L790.34 263.278L789.62 263.062L787.747 262.558L786.019 262.054L785.011 261.838C780.186 260.758 775.505 260.253 770.536 260.253C767.584 260.253 764.487 260.469 761.391 260.83C759.23 261.046 757.214 261.478 755.126 261.694C752.965 262.198 750.949 262.558 748.86 263.062C746.7 263.71 744.684 264.07 742.595 264.718C740.579 265.438 738.419 266.086 736.402 266.735C727.905 269.471 719.983 272.928 712.566 276.816ZM846.51 547.152C847.878 540.743 848.67 533.614 848.526 525.764C848.382 517.123 847.302 507.761 845.285 497.823C841.397 498.543 837.508 499.48 833.475 500.2C818.281 502.936 802.294 505.457 785.587 507.689C779.034 515.322 772.409 522.596 765.567 529.509C752.101 543.047 737.915 554.929 723.584 565.227C731.722 569.332 739.715 572.86 747.204 575.885C756.134 579.27 764.415 581.934 771.977 583.662C779.538 585.391 786.307 586.399 791.708 586.759C793.076 586.903 794.373 586.759 795.597 586.903H797.469H799.125L802.15 586.759L804.814 586.399C806.687 586.255 807.479 586.039 808.343 585.895H808.991L811.728 585.247C813.096 584.887 814.104 584.599 814.752 584.526L816.48 584.022L817.705 583.662L819.217 583.014L822.746 581.502L824.762 580.35L826.922 578.982L828.074 578.261L829.227 577.397L831.603 575.381C834.772 572.644 837.796 568.756 840.389 564.075C842.981 559.322 845.141 553.705 846.51 547.152ZM659.781 524.252C678 538.51 696.507 550.825 714.366 560.474C727.545 550.176 740.507 538.15 752.821 524.612C756.998 520.003 761.103 515.106 764.991 510.065C753.685 511.29 741.947 512.442 730.065 513.306C720.632 514.026 711.342 514.674 701.548 515.178C696.795 515.322 692.115 515.538 687.218 515.826C682.321 515.97 677.28 516.042 672.383 516.186C665.11 516.331 657.692 516.403 650.275 516.403C653.372 519.067 656.468 521.731 659.781 524.252ZM688.298 291.507C675.84 300.148 664.246 309.438 653.948 319.088C651.211 321.608 648.259 324.201 645.81 326.865C644.442 328.233 643.146 329.53 641.778 330.898C640.553 332.122 639.257 333.562 638.033 334.787C636.161 336.803 634.288 338.819 632.488 340.692C654.38 339.467 675.768 338.891 696.579 338.891C700.612 338.891 704.573 338.891 708.605 338.963C722.72 339.179 736.402 339.611 749.869 340.188C740.795 331.402 731.001 322.76 720.416 314.263C717.175 311.742 713.718 309.222 710.478 306.774C706.949 304.253 703.709 301.733 700.036 299.356C696.219 296.62 692.331 293.955 688.298 291.507ZM782.995 356.102C788.756 361.863 794.301 367.624 799.629 373.385C802.15 376.122 804.382 378.93 806.831 381.523C809.207 384.259 811.512 387.068 813.744 389.804L815.472 391.821L816.985 393.837C818.137 395.205 819.145 396.573 820.225 397.87L822.89 401.398C823.25 400.03 823.754 398.734 824.114 397.51C827.498 385.267 829.875 372.809 831.315 360.207L831.459 359.559C825.05 358.839 818.497 358.335 811.872 357.831C802.51 356.966 792.788 356.462 782.995 356.102ZM838.228 472.763C835.348 464.337 831.819 455.696 827.642 446.982C822.962 455.264 818.065 463.257 813.024 471.179C808.631 477.66 804.094 484.069 799.413 490.19C808.991 489.182 818.281 488.174 827.354 486.949C832.395 486.229 837.148 485.437 841.973 484.717C840.821 480.756 839.596 476.724 838.228 472.763ZM554.786 478.236C554.066 481.116 553.418 483.853 552.914 486.733L554.93 486.949C568.541 488.822 582.079 490.334 595.546 491.558C591.369 486.517 587.264 481.404 583.231 476.147C579.055 470.746 575.166 465.346 571.133 459.729C569.261 456.848 567.389 454.184 565.444 451.303L564.076 449.071C560.187 459.08 557.163 468.874 554.786 478.236ZM540.528 375.186C544.561 384.979 549.169 394.629 554.354 403.991C555.362 406.007 556.587 407.879 557.739 409.896C559.971 404.783 562.492 399.598 565.3 394.341C566.812 391.605 568.181 388.796 569.837 385.844C571.493 382.963 573.078 380.083 574.878 377.202C576.606 374.105 578.623 370.937 580.639 367.84C567.317 370.001 554.138 372.377 541.032 375.114L540.528 375.186Z" fill="black"/>
</g>
<g opacity="0.5">
<path opacity="0.5" d="M701.979 396.43C727.399 397.15 747.779 410.688 747.275 426.747C746.915 442.446 727.111 454.616 702.555 454.616C701.835 454.616 701.115 454.616 700.323 454.616C674.83 453.968 654.522 440.357 654.955 424.299C655.459 408.672 675.478 396.502 700.106 396.502C700.755 396.43 701.403 396.43 701.979 396.43ZM704.139 450.727C721.71 450.367 735.825 442.302 738.849 431.932C731.936 440.213 718.326 446.118 702.123 446.479C701.619 446.479 701.187 446.479 700.682 446.479C688.656 446.479 677.638 443.526 669.429 438.557C676.126 445.83 688.656 450.727 702.627 450.727C703.131 450.727 703.635 450.727 704.139 450.727Z" fill="black"/>
</g>
</svg>
